<?xml version="1.0" standalone="no"?>
<!DOCTYPE svg PUBLIC "-//W3C//DTD SVG 20010904//EN"
 "http://www.w3.org/TR/2001/REC-SVG-20010904/DTD/svg10.dtd">
<svg version="1.0" xmlns="http://www.w3.org/2000/svg"
 width="4001.000000pt" height="4001.000000pt" viewBox="0 0 4001.000000 4001.000000"
 preserveAspectRatio="xMidYMid meet">

<g transform="translate(0.000000,4001.000000) scale(0.100000,-0.100000)"
fill="#000000" stroke="none">
<path d="M10 20010 l0 -20000 20000 0 20000 0 0 20000 0 20000 -20000 0
-20000 0 0 -20000z m15935 10718 c556 -810 1262 -1835 1870 -2718 214 -311
627 -911 918 -1335 292 -423 553 -804 582 -845 29 -41 286 -415 572 -830 285
-415 708 -1029 938 -1363 l418 -608 22 23 c13 13 832 966 1822 2118 1713 1995
2117 2465 3268 3805 275 320 871 1012 1325 1538 l825 956 953 1 c918 0 953 -1
940 -18 -7 -10 -243 -286 -524 -613 -282 -327 -945 -1098 -1474 -1714 -530
-616 -1108 -1289 -1285 -1495 -178 -206 -895 -1041 -1595 -1855 -700 -814
-1516 -1763 -1814 -2110 -297 -346 -763 -889 -1035 -1205 -272 -316 -512 -595
-533 -619 -21 -25 -37 -50 -34 -57 5 -13 98 -148 711 -1039 148 -214 383 -556
523 -760 140 -203 283 -410 317 -460 34 -49 132 -191 217 -315 759 -1103 1230
-1787 1273 -1850 83 -120 521 -757 1050 -1525 268 -390 507 -737 530 -770 23
-33 237 -343 475 -690 1097 -1594 1293 -1879 1700 -2470 238 -346 452 -657
475 -690 57 -83 692 -1005 1280 -1860 268 -390 503 -731 522 -757 l35 -48
-3304 0 -3303 1 -252 367 c-139 202 -370 538 -514 747 -288 419 -290 422 -609
885 -123 179 -242 352 -265 385 -23 33 -286 416 -585 850 -299 435 -566 824
-595 865 -49 71 -202 293 -1215 1765 -235 341 -543 789 -685 995 -693 1006
-1357 1972 -1401 2037 -27 40 -52 71 -56 70 -4 -1 -457 -524 -1005 -1163 -549
-638 -1133 -1318 -1298 -1510 -166 -192 -1045 -1215 -1955 -2274 -910 -1059
-1767 -2056 -1905 -2216 -137 -160 -542 -631 -900 -1047 l-650 -757 -954 0
c-908 0 -953 1 -939 18 8 9 744 865 1634 1902 1479 1721 2127 2476 3020 3515
175 204 1099 1279 2053 2390 955 1111 1807 2103 1894 2204 140 163 157 185
144 200 -8 9 -49 68 -92 131 -74 109 -560 816 -650 945 -23 33 -116 168 -206
300 -379 550 -1043 1515 -1281 1860 -140 204 -474 690 -743 1080 -1434 2084
-2205 3204 -3135 4555 -172 250 -581 844 -908 1320 -328 476 -735 1068 -905
1315 -722 1049 -807 1173 -807 1179 0 3 1484 6 3298 6 l3297 -1 510 -741z"/>
<path d="M11680 29975 c0 -4 448 -658 685 -1000 23 -33 284 -413 581 -845 862
-1253 1074 -1561 1119 -1625 23 -33 165 -240 317 -460 151 -220 394 -573 540
-785 145 -212 554 -806 908 -1320 354 -514 738 -1072 854 -1240 224 -326 537
-781 1056 -1535 178 -258 346 -504 375 -545 197 -285 1182 -1714 1672 -2427
285 -416 1017 -1480 1261 -1833 36 -52 187 -273 337 -490 149 -217 392 -570
540 -785 148 -214 388 -563 533 -775 146 -212 289 -419 317 -460 29 -41 173
-250 320 -465 148 -214 287 -417 310 -450 23 -33 286 -415 585 -850 299 -434
644 -936 767 -1115 124 -179 317 -461 431 -627 l207 -302 1483 -1 c815 0 1482
3 1482 6 0 3 -29 47 -64 97 -106 153 -1043 1515 -2179 3167 -176 256 -339 492
-362 525 -23 33 -142 206 -265 385 -123 179 -242 352 -265 385 -23 33 -167
242 -320 465 -153 223 -297 432 -320 465 -23 33 -116 168 -206 300 -91 132
-311 452 -489 710 -462 671 -843 1225 -1600 2325 -662 961 -908 1319 -1535
2227 -181 263 -431 627 -555 808 -209 305 -1350 1963 -1445 2100 -23 33 -311
452 -640 930 -580 843 -974 1416 -1060 1540 -40 58 -513 745 -940 1366 -115
168 -493 718 -840 1222 l-630 916 -1482 1 c-816 0 -1483 -2 -1483 -5z"/>
</g>
</svg>
