<?xml version="1.0" encoding="UTF-8"?>
<svg version="1.1" xmlns="http://www.w3.org/2000/svg" width="500" height="169">
<path d="M0 0 C1.46271835 -0.00855011 1.46271835 -0.00855011 2.95498657 -0.01727295 C5.01425091 -0.02670108 7.0735302 -0.03324822 9.1328125 -0.03710938 C12.27110246 -0.04681943 15.40873843 -0.07786563 18.546875 -0.109375 C20.55207946 -0.11590537 22.55728859 -0.12115571 24.5625 -0.125 C25.4950058 -0.1373468 26.4275116 -0.1496936 27.38827515 -0.16241455 C34.4925422 -0.13830349 39.28145791 0.91390361 44.7890625 5.703125 C48.10020902 9.5985915 48.04912196 12.63014587 48.09106445 17.58300781 C48.11031731 19.56086273 48.11031731 19.56086273 48.12995911 21.57867432 C48.1381277 23.02119571 48.1455712 24.46372137 48.15234375 25.90625 C48.15641928 26.63394341 48.1604948 27.36163681 48.16469383 28.11138153 C48.18554079 31.96438817 48.19984742 35.81735935 48.20922852 39.67041016 C48.22027957 43.63935923 48.25466759 47.6077456 48.29440022 51.57649612 C48.32061572 54.63754275 48.32892476 57.69845641 48.33250999 60.75960541 C48.33736464 62.22197004 48.34894664 63.68432918 48.36754799 65.14658356 C48.53777292 79.41699375 48.53777292 79.41699375 43.9140625 85.203125 C39.63114269 88.41531486 35.71230955 89.32227009 30.44018555 89.34838867 C29.12312874 89.35795845 29.12312874 89.35795845 27.77946472 89.36772156 C26.83774918 89.36883438 25.89603363 89.3699472 24.92578125 89.37109375 C23.46094048 89.37608635 23.46094048 89.37608635 21.96650696 89.38117981 C19.90126007 89.38623914 17.83600503 89.38858844 15.77075195 89.38842773 C12.6237222 89.39060964 9.47704567 89.40876338 6.33007812 89.42773438 C4.32031369 89.43066948 2.3105476 89.43265349 0.30078125 89.43359375 C-0.6348616 89.44077927 -1.57050446 89.44796478 -2.53450012 89.45536804 C-9.23247666 89.43214852 -14.83825601 89.35090953 -19.8984375 84.515625 C-24.81876274 77.06484678 -24.39317046 69.60969687 -24.38671875 60.9296875 C-24.39100388 59.65137054 -24.395289 58.37305359 -24.39970398 57.05599976 C-24.40713588 54.35792883 -24.40689734 51.65998882 -24.40161133 48.96191406 C-24.39582423 45.52691829 -24.41274339 42.09246307 -24.435956 38.65755653 C-24.4543466 35.35241231 -24.45050575 32.04738242 -24.44921875 28.7421875 C-24.4584285 27.52004547 -24.46763824 26.29790344 -24.47712708 25.03872681 C-24.39718401 10.17707134 -24.39718401 10.17707134 -19.7401886 4.58804321 C-13.9694555 -0.63803992 -7.31907628 0.03321236 0 0 Z M-10.0859375 14.203125 C-10.0859375 34.333125 -10.0859375 54.463125 -10.0859375 75.203125 C-2.8465625 75.22375 4.3928125 75.244375 11.8515625 75.265625 C15.28357056 75.27928101 15.28357056 75.27928101 18.78491211 75.29321289 C20.58707622 75.29613195 22.389241 75.29868053 24.19140625 75.30078125 C25.13632935 75.30589722 26.08125244 75.31101318 27.05480957 75.31628418 C27.94800903 75.31640503 28.8412085 75.31652588 29.76147461 75.31665039 C30.54090927 75.318871 31.32034393 75.32109161 32.12339783 75.32337952 C33.93772785 75.39883886 33.93772785 75.39883886 34.9140625 74.203125 C35.01311402 72.36739869 35.04205457 70.52784925 35.04345703 68.68945312 C35.04818527 66.92257141 35.04818527 66.92257141 35.05300903 65.11999512 C35.0509848 63.83774048 35.04896057 62.55548584 35.046875 61.234375 C35.04783173 59.92859497 35.04878845 58.62281494 35.04977417 57.27746582 C35.05125083 54.50999778 35.04909761 51.74256196 35.04443359 48.97509766 C35.03873631 45.42049851 35.04201548 41.86597486 35.04800606 38.31137848 C35.05247997 34.93153786 35.04935136 31.55171777 35.046875 28.171875 C35.04889923 26.88962036 35.05092346 25.60736572 35.05300903 24.28625488 C35.04985687 23.10833374 35.04670471 21.9304126 35.04345703 20.71679688 C35.04266144 19.67390503 35.04186584 18.63101318 35.04104614 17.55651855 C35.17911657 15.24551865 35.17911657 15.24551865 33.9140625 14.203125 C32.53246135 14.1103417 31.14618212 14.08565457 29.76147461 14.08959961 C28.42167542 14.08978088 28.42167542 14.08978088 27.05480957 14.08996582 C26.10988647 14.09508179 25.16496338 14.10019775 24.19140625 14.10546875 C22.89547546 14.10697937 22.89547546 14.10697937 21.57336426 14.10852051 C18.33275025 14.1137695 15.0921551 14.12773064 11.8515625 14.140625 C0.9925 14.1715625 0.9925 14.1715625 -10.0859375 14.203125 Z " fill="#366EE9" transform="translate(166.0859375,76.796875)"/>
<path d="M0 0 C0.88126556 -0.00637985 1.76253113 -0.0127597 2.67050171 -0.01933289 C3.61535431 -0.02044571 4.56020691 -0.02155853 5.53369141 -0.02270508 C6.5126236 -0.02603348 7.49155579 -0.02936188 8.50015259 -0.03279114 C10.56959565 -0.03785002 12.63904685 -0.04019978 14.70849609 -0.04003906 C17.8665112 -0.04222336 21.02417568 -0.06038419 24.18212891 -0.0793457 C26.19514855 -0.08228031 28.20816985 -0.08426466 30.22119141 -0.08520508 C31.16199554 -0.09239059 32.10279968 -0.09957611 33.07211304 -0.10697937 C40.49480663 -0.0812497 45.92751264 0.8726747 51.51025391 6.14526367 C53.80422745 9.64918492 53.77452937 12.71007051 53.80078125 16.83813477 C53.80749847 17.50207748 53.8142157 18.1660202 53.82113647 18.8500824 C53.84009652 21.03969863 53.84403963 23.22900801 53.84619141 25.41870117 C53.85262086 26.94560877 53.85934934 28.47251514 53.86636353 29.99942017 C53.87833137 33.19877986 53.88204488 36.39803162 53.88085938 39.59741211 C53.88065624 43.68865314 53.90795415 47.7791991 53.94240379 51.8702755 C53.96468782 55.02394768 53.96869646 58.17745299 53.96763992 61.33119583 C53.96999378 62.83903015 53.97880529 64.34686921 53.99430466 65.8546257 C54.01399615 67.96810732 54.00811618 70.08009565 53.99609375 72.19360352 C53.99894379 73.39399261 54.00179382 74.59438171 54.00473022 75.83114624 C53.29254987 80.60437654 51.05803744 83.69733714 47.57275391 86.95776367 C42.4099903 89.93026393 36.23881103 89.32207516 30.45947266 89.34838867 C29.00031181 89.35693878 29.00031181 89.35693878 27.51167297 89.36566162 C25.45660482 89.37509057 23.4015217 89.38163722 21.34643555 89.38549805 C18.21912987 89.39519737 15.09248349 89.42623848 11.96533203 89.45776367 C9.96338279 89.46429515 7.96142887 89.46954505 5.95947266 89.47338867 C5.03212814 89.48573547 4.10478363 89.49808228 3.14933777 89.51080322 C-2.75241654 89.49077164 -7.12191863 88.65446928 -12.48974609 86.14526367 C-16.95256546 81.56801304 -17.61391188 78.00464245 -17.66674805 71.76538086 C-17.67958328 70.44681091 -17.69241852 69.12824097 -17.7056427 67.76971436 C-17.71381129 66.32719296 -17.7212548 64.8846673 -17.72802734 63.44213867 C-17.73414063 62.35059856 -17.73414063 62.35059856 -17.74037743 61.23700714 C-17.76122439 57.3840005 -17.77553101 53.53102932 -17.78491211 49.67797852 C-17.79596316 45.70902944 -17.83035118 41.74064307 -17.87008381 37.77189255 C-17.89629932 34.71084592 -17.90460836 31.64993227 -17.90819359 28.58878326 C-17.91304824 27.12641863 -17.92463023 25.66405949 -17.94323158 24.20180511 C-18.11345651 9.93139493 -18.11345651 9.93139493 -13.48974609 4.14526367 C-9.20083816 0.92858273 -5.27902885 0.02605067 0 0 Z M-4.48974609 14.14526367 C-4.48974609 34.27526367 -4.48974609 54.40526367 -4.48974609 75.14526367 C2.74962891 75.16588867 9.98900391 75.18651367 17.44775391 75.20776367 C20.87976196 75.22141968 20.87976196 75.22141968 24.38110352 75.23535156 C26.18326763 75.23827062 27.9854324 75.2408192 29.78759766 75.24291992 C30.73252075 75.24803589 31.67744385 75.25315186 32.65100098 75.25842285 C33.54420044 75.2585437 34.4373999 75.25866455 35.35766602 75.25878906 C36.13710068 75.26100967 36.91653534 75.26323029 37.71958923 75.26551819 C39.53391926 75.34097753 39.53391926 75.34097753 40.51025391 74.14526367 C40.60411771 72.27345427 40.62769194 70.39808307 40.6237793 68.52392578 C40.62370377 67.3227562 40.62362823 66.12158661 40.62355042 64.88401794 C40.61838913 63.57675247 40.61322784 62.269487 40.60791016 60.92260742 C40.60604589 59.57882235 40.60462203 58.2350366 40.60362244 56.89125061 C40.59979792 53.34844091 40.58996822 49.80567197 40.57891846 46.26287842 C40.5687029 42.65011151 40.56406981 39.03733784 40.55908203 35.42456055 C40.54887608 28.33142554 40.52930441 21.2384026 40.51025391 14.14526367 C25.66025391 14.14526367 10.81025391 14.14526367 -4.48974609 14.14526367 Z " fill="#336BE8" transform="translate(68.48974609375,1.854736328125)"/>
<path d="M0 0 C1.46271835 -0.00855011 1.46271835 -0.00855011 2.95498657 -0.01727295 C5.01425091 -0.02670108 7.0735302 -0.03324822 9.1328125 -0.03710938 C12.27110246 -0.04681943 15.40873843 -0.07786563 18.546875 -0.109375 C20.55207946 -0.11590537 22.55728859 -0.12115571 24.5625 -0.125 C25.4950058 -0.1373468 26.4275116 -0.1496936 27.38827515 -0.16241455 C34.4925422 -0.13830349 39.28145791 0.91390361 44.7890625 5.703125 C48.26573887 9.79333249 48.0990013 13.59992675 48.15234375 18.72265625 C48.1604155 19.45884689 48.16848724 20.19503754 48.17680359 20.95353699 C48.19062285 22.51107442 48.20135465 24.06864187 48.20922852 25.6262207 C48.2207462 27.21387648 48.24119497 28.8014936 48.27075195 30.38891602 C48.3135521 32.68792929 48.32961378 34.98579339 48.33984375 37.28515625 C48.35735184 37.98848587 48.37485992 38.69181549 48.39289856 39.41645813 C48.37067919 44.50936056 47.20122181 47.34663339 43.9140625 51.203125 C38.55667185 56.18129572 33.13049906 55.8012306 26.19921875 55.76953125 C25.07011581 55.77572983 23.94101288 55.78192841 22.7776947 55.78831482 C20.39485535 55.79540443 18.01196638 55.79225409 15.62915039 55.77954102 C11.99206958 55.76568408 8.35756653 55.79975289 4.72070312 55.83789062 C2.40104104 55.83884196 0.08137575 55.83698224 -2.23828125 55.83203125 C-3.32076645 55.84528946 -4.40325165 55.85854767 -5.51853943 55.87220764 C-12.36406104 55.78819177 -16.04352445 54.95051006 -21.0859375 50.203125 C-25.23832539 43.94321304 -24.53518114 35.39650876 -24.4609375 28.203125 C-24.47253906 27.0790625 -24.48414063 25.955 -24.49609375 24.796875 C-24.47175779 17.85301584 -24.40319556 10.18961219 -19.74023438 4.5859375 C-13.96536417 -0.63578422 -7.3205656 0.03321912 0 0 Z M-10.0859375 14.203125 C-10.11480088 18.68227828 -10.13268937 23.16140791 -10.1484375 27.640625 C-10.15681641 28.92001953 -10.16519531 30.19941406 -10.17382812 31.51757812 C-10.17705078 32.73251953 -10.18027344 33.94746094 -10.18359375 35.19921875 C-10.18883057 36.32513428 -10.19406738 37.4510498 -10.19946289 38.61108398 C-10.38139198 41.13283371 -10.38139198 41.13283371 -9.0859375 42.203125 C-7.74049423 42.30097841 -6.39001187 42.33110485 -5.04101562 42.33251953 C-4.18342651 42.33567169 -3.3258374 42.33882385 -2.44226074 42.34207153 C-1.04384949 42.33903519 -1.04384949 42.33903519 0.3828125 42.3359375 C1.33345581 42.33689423 2.28409912 42.33785095 3.2635498 42.33883667 C5.27775132 42.33951857 7.29195502 42.33766362 9.30615234 42.33349609 C12.40076605 42.32814798 15.4952346 42.33344077 18.58984375 42.33984375 C20.54166699 42.33918297 22.49349014 42.33790181 24.4453125 42.3359375 C25.37758667 42.33796173 26.30986084 42.33998596 27.27038574 42.34207153 C28.12797485 42.33891937 28.98556396 42.33576721 29.86914062 42.33251953 C31.00712097 42.33132614 31.00712097 42.33132614 32.16809082 42.33010864 C33.94283562 42.39233587 33.94283562 42.39233587 34.9140625 41.203125 C35.01378036 39.28854218 35.04486839 37.37030183 35.046875 35.453125 C35.04816406 34.2878125 35.04945313 33.1225 35.05078125 31.921875 C35.04498047 30.08109375 35.04498047 30.08109375 35.0390625 28.203125 C35.04292969 26.9759375 35.04679687 25.74875 35.05078125 24.484375 C35.04949219 23.3190625 35.04820312 22.15375 35.046875 20.953125 C35.04518311 19.33664063 35.04518311 19.33664063 35.04345703 17.6875 C35.19498621 15.26092503 35.19498621 15.26092503 33.9140625 14.203125 C32.53246135 14.1103417 31.14618212 14.08565457 29.76147461 14.08959961 C28.88063705 14.08967514 27.9997995 14.08975067 27.0922699 14.08982849 C25.65634239 14.09757042 25.65634239 14.09757042 24.19140625 14.10546875 C22.72858971 14.10759117 22.72858971 14.10759117 21.23622131 14.10975647 C18.10797107 14.11537367 14.97979127 14.12792907 11.8515625 14.140625 C9.73632916 14.14563778 7.62109469 14.15020107 5.50585938 14.15429688 C0.30856954 14.16534869 -4.88867895 14.18210354 -10.0859375 14.203125 Z " fill="#366EE9" transform="translate(166.0859375,1.796875)"/>
<path d="M0 0 C1.49735687 -0.01925285 1.49735687 -0.01925285 3.02496338 -0.03889465 C4.64214264 -0.04997505 4.64214264 -0.04997505 6.29199219 -0.0612793 C7.40314392 -0.06935104 8.51429565 -0.07742279 9.65911865 -0.08573914 C12.01280152 -0.09957644 14.36650443 -0.11030017 16.72021484 -0.11816406 C20.31093622 -0.13536425 23.9007339 -0.17925357 27.49121094 -0.22338867 C29.77896459 -0.23351688 32.06672606 -0.24203258 34.35449219 -0.2487793 C35.42451477 -0.26628738 36.49453735 -0.28379547 37.59698486 -0.30183411 C43.975596 -0.28337328 47.98207999 0.22536158 53.08886719 4.17700195 C56.51862614 8.19935312 56.54254225 12.24801694 56.52246094 17.3293457 C56.52770279 18.10709854 56.53294464 18.88485138 56.53834534 19.68617249 C56.54474906 21.3259258 56.54344992 22.96572516 56.53491211 24.60546875 C56.52640479 27.10345938 56.55517845 29.59915898 56.58691406 32.09692383 C56.58852646 33.69523044 56.5879478 35.29354107 56.58496094 36.8918457 C56.59619492 37.63264877 56.60742889 38.37345184 56.6190033 39.13670349 C56.55027757 44.29541221 55.30390277 47.18458947 52.08886719 51.17700195 C46.76891468 56.15373172 39.89255155 55.34891836 33.03808594 55.38012695 C31.57892509 55.38867706 31.57892509 55.38867706 30.09028625 55.3973999 C28.03521811 55.40682885 25.98013498 55.4133755 23.92504883 55.41723633 C20.79774315 55.42693566 17.67109677 55.45797676 14.54394531 55.48950195 C12.54199607 55.49603343 10.54004215 55.50128334 8.53808594 55.50512695 C7.61074142 55.51747375 6.68339691 55.52982056 5.72795105 55.5425415 C-0.17380326 55.52250992 -4.54330535 54.68620756 -9.91113281 52.17700195 C-14.63046784 47.33665834 -15.08170858 43.15955115 -15.14941406 36.6574707 C-15.15748581 35.92128006 -15.16555756 35.18508942 -15.1738739 34.42658997 C-15.18769317 32.86905253 -15.19842496 31.31148509 -15.20629883 29.75390625 C-15.21781651 28.16625047 -15.23826528 26.57863335 -15.26782227 24.99121094 C-15.31062241 22.69219766 -15.32668409 20.39433356 -15.33691406 18.0949707 C-15.35442215 17.39164108 -15.37193024 16.68831146 -15.38996887 15.96366882 C-15.36400231 10.01187301 -13.12390385 6.74381635 -9.34863281 2.36450195 C-6.48542354 -0.00075788 -3.54248915 0.03970808 0 0 Z M-1.91113281 14.17700195 C-1.99871284 16.17665177 -2.01809857 18.17936305 -2.00878906 20.1809082 C-2.00556641 21.39584961 -2.00234375 22.61079102 -1.99902344 23.86254883 C-1.99064453 25.14194336 -1.98226562 26.42133789 -1.97363281 27.73950195 C-1.96912109 29.02276367 -1.96460938 30.30602539 -1.95996094 31.62817383 C-1.94812827 34.81116218 -1.9316435 37.99405958 -1.91113281 41.17700195 C4.33682394 41.2022732 10.5847676 41.21983539 16.83276367 41.23193359 C18.96004733 41.23697494 21.0873275 41.24380786 23.21459961 41.25244141 C26.26514545 41.26451574 29.31564564 41.27023209 32.36621094 41.2746582 C33.32349594 41.27981949 34.28078094 41.28498077 35.26707458 41.29029846 C36.14791214 41.29037399 37.02874969 41.29044952 37.9362793 41.29052734 C38.71571396 41.29274796 39.49514862 41.29496857 40.29820251 41.29725647 C42.11253254 41.37271582 42.11253254 41.37271582 43.08886719 40.17700195 C43.17644722 38.17735213 43.19583295 36.17464086 43.18652344 34.1730957 C43.18330078 32.9581543 43.18007812 31.74321289 43.17675781 30.49145508 C43.16837891 29.21206055 43.16 27.93266602 43.15136719 26.61450195 C43.14685547 25.33124023 43.14234375 24.04797852 43.13769531 22.72583008 C43.12586264 19.54284173 43.10937787 16.35994433 43.08886719 13.17700195 C36.84091044 13.15173071 30.59296677 13.13416852 24.3449707 13.12207031 C22.21768705 13.11702897 20.09040688 13.11019604 17.96313477 13.1015625 C14.91258893 13.08948816 11.86208873 13.08377181 8.81152344 13.0793457 C7.85423843 13.07418442 6.89695343 13.06902313 5.91065979 13.06370544 C4.58940346 13.06359215 4.58940346 13.06359215 3.24145508 13.06347656 C2.46202042 13.06125595 1.68258575 13.05903534 0.87953186 13.05674744 C-0.93479816 12.98128809 -0.93479816 12.98128809 -1.91113281 14.17700195 Z " fill="#2C68E9" transform="translate(65.9111328125,110.822998046875)"/>
<path d="M0 0 C6.99302363 8.12702747 8.11658536 16.33266526 7.55224609 26.70507812 C6.93311238 31.8245952 4.47167065 36.80127192 0.58203125 40.19921875 C-0.89054647 41.59383311 -0.89054647 41.59383311 -0.66015625 43.51953125 C0.71332327 46.58090127 2.70135549 48.82717568 4.875 51.375 C9.3125 56.60169657 9.3125 56.60169657 9.3125 57.6875 C-5.91788249 58.75600122 -5.91788249 58.75600122 -10.15234375 56.19921875 C-12.21683885 53.76119641 -13.6875 51.94487534 -13.6875 48.6875 C-14.50992188 48.73390625 -15.33234375 48.7803125 -16.1796875 48.828125 C-25.29974204 49.12299974 -31.62038743 47.68170288 -39.4375 43.0625 C-46.8970763 35.1885028 -49.07924123 27.5841664 -48.9609375 17.0078125 C-48.28273429 8.77248777 -43.86112653 2.04848807 -37.6875 -3.3125 C-25.34270806 -10.87231949 -10.83129572 -9.31995213 0 0 Z M-29.6875 7.6875 C-33.27725816 11.55339341 -34.4293408 15.23259987 -34.78515625 20.37890625 C-34.56049568 25.68988205 -32.96509847 29.47222341 -29.125 33.125 C-24.95372344 35.79889523 -21.59760342 36.20783851 -16.6875 35.6875 C-12.54667545 33.89941667 -10.25560687 31.3562241 -7.6875 27.6875 C-6.15270239 23.08310717 -5.73003382 18.27712356 -7.44140625 13.6484375 C-9.30038372 10.22208687 -11.20614017 7.47791363 -14.6875 5.6875 C-20.35843332 4.16071026 -24.68894365 4.72096547 -29.6875 7.6875 Z " fill="#306AE9" transform="translate(415.6875,62.3125)"/>
<path d="M0 0 C6.93 -0.0928125 6.93 -0.0928125 14 -0.1875 C16.16175781 -0.22846802 16.16175781 -0.22846802 18.3671875 -0.27026367 C26.83107918 -0.32504805 33.26566262 -0.17815947 39.9375 5.5 C43.28047742 9.55209384 43.34761551 12.87267119 43 18 C41.70703876 21.42634728 40.93741749 23.41076615 37.8125 25.375 C37.214375 25.58125 36.61625 25.7875 36 26 C36 26.66 36 27.32 36 28 C36.598125 28.268125 37.19625 28.53625 37.8125 28.8125 C41.31088537 30.71162349 42.73345454 32.20036361 44 36 C44.54885106 40.7237181 44.46596728 44.10134882 42.25 48.375 C39.35205909 51.75593106 37.22462114 53.59179295 33 55 C30.48658383 55.08467279 28.001081 55.11609535 25.48828125 55.09765625 C24.84258179 55.09664917 24.19688232 55.09564209 23.53161621 55.09460449 C21.12522601 55.08938211 18.71886118 55.07542083 16.3125 55.0625 C10.929375 55.041875 5.54625 55.02125 0 55 C0 36.85 0 18.7 0 0 Z M14 12 C14 15.3 14 18.6 14 22 C15.95803507 22.05389087 17.91648909 22.09274217 19.875 22.125 C20.96554687 22.14820313 22.05609375 22.17140625 23.1796875 22.1953125 C26.1371051 22.30060534 26.1371051 22.30060534 28 20 C28.41666667 17 28.41666667 17 28 14 C24.57905758 11.71937172 23.31812778 11.78074993 19.3125 11.875 C18.31863281 11.89304687 17.32476562 11.91109375 16.30078125 11.9296875 C15.54152344 11.95289062 14.78226562 11.97609375 14 12 Z M14 33 C14 36.63 14 40.26 14 44 C15.91541138 44.10841951 17.83259773 44.18578079 19.75 44.25 C21.35101563 44.31960937 21.35101563 44.31960937 22.984375 44.390625 C26.09937679 44.2452079 26.09937679 44.2452079 28.39453125 42.1484375 C30.27260209 40.09632167 30.27260209 40.09632167 29.9375 37.375 C29.13344454 34.67710239 29.13344454 34.67710239 26 33 C23.02550392 32.75780685 23.02550392 32.75780685 19.8125 32.875 C18.72582031 32.89304688 17.63914062 32.91109375 16.51953125 32.9296875 C15.68808594 32.95289063 14.85664063 32.97609375 14 33 Z " fill="#2F69E8" transform="translate(245,55)"/>
<path d="M0 0 C32.15777262 0 32.15777262 0 38.15625 4.68359375 C38.5996875 5.26238281 39.043125 5.84117188 39.5 6.4375 C39.9640625 7.01371094 40.428125 7.58992188 40.90625 8.18359375 C43.44255835 12.39567726 43.50157893 17.1978462 43 22 C41.14780662 27.24788123 38.39709304 29.81912419 34 33 C33.34 33 32.68 33 32 33 C34.98293173 39.20344209 38.20081734 45.13832886 41.86328125 50.96875 C43 53 43 53 43 55 C37.72 55 32.44 55 27 55 C25.32818524 52.04447033 23.66237821 49.08583038 22 46.125 C21.52304687 45.28324219 21.04609375 44.44148438 20.5546875 43.57421875 C20.10351562 42.76855469 19.65234375 41.96289062 19.1875 41.1328125 C18.76855469 40.38918457 18.34960938 39.64555664 17.91796875 38.87939453 C17 37 17 37 17 35 C16.01 35 15.02 35 14 35 C14 41.6 14 48.2 14 55 C9.38 55 4.76 55 0 55 C0 36.85 0 18.7 0 0 Z M14 12 C14 16.29 14 20.58 14 25 C20.14950742 25.29585677 20.14950742 25.29585677 26.0625 23.9375 C28.34530795 22.03311528 28.34530795 22.03311528 28.5625 18.5 C28.35392766 15.02051849 28.35392766 15.02051849 26.29296875 13.29296875 C23.54508657 11.74348153 21.87931607 11.68897437 18.75 11.8125 C16.39875 11.9053125 16.39875 11.9053125 14 12 Z " fill="#306AE8" transform="translate(296,55)"/>
<path d="M0 0 C3.97284728 4.58405456 4.08890445 6.62233116 5 13 C0.05 13 -4.9 13 -10 13 C-10.66 11.35 -11.32 9.7 -12 8 C-14.33294775 7.95758277 -16.66702567 7.95907063 -19 8 C-20.29633621 9.06645115 -20.29633621 9.06645115 -20.0625 11.5625 C-20.041875 12.366875 -20.02125 13.17125 -20 14 C-19.2265625 14.31453125 -18.453125 14.6290625 -17.65625 14.953125 C-14.42762576 16.27973793 -11.21156156 17.63262348 -8 19 C-7.20722656 19.33386719 -6.41445313 19.66773437 -5.59765625 20.01171875 C-1.14301338 22.03811099 2.98766483 24.32618929 5 29 C5.86980714 34.60371323 5.776254 39.3280683 3.375 44.5 C-1.12660701 49.23853369 -5.26532505 51.722567 -11.734375 52.203125 C-19.72873278 52.32738963 -25.6130156 51.94520383 -31.875 46.5 C-35.65821241 42.04916187 -36.21890106 39.80087811 -36 34 C-33.73078464 33.86510609 -31.4592933 33.76806005 -29.1875 33.6875 C-27.29064453 33.60048828 -27.29064453 33.60048828 -25.35546875 33.51171875 C-24.24816406 33.67285156 -23.14085937 33.83398438 -22 34 C-20.34375 36.5 -20.34375 36.5 -19 39 C-16.72668201 39.60169446 -16.72668201 39.60169446 -14.3125 39.3125 C-13.50425781 39.26738281 -12.69601562 39.22226563 -11.86328125 39.17578125 C-11.24839844 39.11777344 -10.63351562 39.05976562 -10 39 C-9.76617685 36.11233309 -9.76617685 36.11233309 -11 33 C-13.85463933 31.17079066 -16.99320795 30.16194175 -20.1875 29.0625 C-26.99153731 26.69834169 -32.26951557 24.47092522 -36 18 C-37.26811187 12.59348002 -36.67564615 7.57650769 -34.5 2.5 C-25.40824698 -6.59175302 -10.43288615 -7.56564954 0 0 Z " fill="#2D68E7" transform="translate(465,59)"/>
<path d="M0 0 C0.33 0.66 0.66 1.32 1 2 C1.99 1.67 2.98 1.34 4 1 C5.32 2.65 6.64 4.3 8 6 C7.01 6 6.02 6 5 6 C4.97494385 6.94842773 4.9498877 7.89685547 4.92407227 8.87402344 C4.8288116 12.40018032 4.72958559 15.92617959 4.62768555 19.45214844 C4.58443293 20.97684386 4.54275115 22.50158469 4.50268555 24.02636719 C4.44474797 26.22084222 4.38112205 28.41509068 4.31640625 30.609375 C4.29133751 31.62834869 4.29133751 31.62834869 4.26576233 32.66790771 C4.16492528 35.90538552 3.96860824 38.89769604 3 42 C3.66 42.33 4.32 42.66 5 43 C5.66 43.99 6.32 44.98 7 46 C6.690625 45.1028125 6.690625 45.1028125 6.375 44.1875 C6 42 6 42 8 39 C10.69540315 38.73313787 13.15847464 38.65181927 15.8515625 38.70703125 C16.62559418 38.71127609 17.39962585 38.71552094 18.19711304 38.71989441 C20.67342677 38.73671002 23.14893158 38.77436605 25.625 38.8125 C27.30207159 38.82754318 28.97915592 38.84123222 30.65625 38.85351562 C34.77114581 38.88662279 38.88543569 38.93842363 43 39 C43.495 40.98 43.495 40.98 44 43 C43.01 43.495 43.01 43.495 42 44 C41.84850702 47.62885324 41.84850702 47.62885324 43 51 C37.14680629 51.1240326 31.29438533 51.21454361 25.44018555 51.2746582 C23.45079209 51.29972983 21.4614901 51.33379622 19.47241211 51.37719727 C16.60507592 51.43817389 13.73896229 51.46628323 10.87109375 51.48828125 C9.54723915 51.52699089 9.54723915 51.52699089 8.19664001 51.56648254 C2.85175726 51.56888457 -0.4973587 50.7821943 -4.66557312 47.34056091 C-9.81568538 42.16677485 -9.38681319 33.93723526 -9.41015625 27.11328125 C-9.39855469 25.96214844 -9.38695312 24.81101562 -9.375 23.625 C-9.38660156 22.45066406 -9.39820313 21.27632812 -9.41015625 20.06640625 C-9.40628906 18.94363281 -9.40242187 17.82085938 -9.3984375 16.6640625 C-9.39505371 15.64779785 -9.39166992 14.6315332 -9.38818359 13.58447266 C-8.94223092 10.61538148 -8.26150607 9.86838849 -6 8 C-5.5359375 7.0409375 -5.5359375 7.0409375 -5.0625 6.0625 C-3.76677303 3.54726529 -2.0567552 1.91963819 0 0 Z " fill="#2563E9" transform="translate(151,6)"/>
<path d="M0 0 C-0.99 0 -1.98 0 -3 0 C-3.66 1.32 -4.32 2.64 -5 4 C-5.99 4 -6.98 4 -8 4 C-7.814375 4.61875 -7.62875 5.2375 -7.4375 5.875 C-7 8 -7 8 -8 10 C-8.99 10 -9.98 10 -11 10 C-11 10.66 -11 11.32 -11 12 C-8.525 12.99 -8.525 12.99 -6 14 C-6.54421341 16.35825811 -7.18613656 18.44465955 -8.125 20.6875 C-9.65228795 26.4693758 -8.96697961 31.16607316 -6.1875 36.4375 C-4.03399724 38.96017466 -3.01117671 39.83524894 0 41 C2.59154919 41.24029959 2.59154919 41.24029959 5.25 41.125 C6.58804687 41.09792969 6.58804687 41.09792969 7.953125 41.0703125 C8.62859375 41.04710937 9.3040625 41.02390625 10 41 C9 43 9 43 6 45 C5.64587656 46.32796291 5.31478446 47.66216607 5 49 C4.02798869 50.35387289 3.03042862 51.69004021 2 53 C3.24716797 52.85691406 3.24716797 52.85691406 4.51953125 52.7109375 C5.60621094 52.60007813 6.69289063 52.48921875 7.8125 52.375 C8.89144531 52.25898437 9.97039062 52.14296875 11.08203125 52.0234375 C14.69649953 51.99440563 16.13106552 53.16324827 18.6875 55.625 C19.120625 56.07875 19.55375 56.5325 20 57 C19.01 57.33 18.02 57.66 17 58 C17.33 58.99 17.66 59.98 18 61 C20.64 61 23.28 61 26 61 C26.33 59.35 26.66 57.7 27 56 C25.68 56 24.36 56 23 56 C22.01 53.69 21.02 51.38 20 49 C19.505 49.99 19.505 49.99 19 51 C18.34 51 17.68 51 17 51 C17.3125 49.125 17.3125 49.125 18 47 C21 45 21 45 25 45 C24.74476563 45.88300781 24.48953125 46.76601562 24.2265625 47.67578125 C23.64849222 51.08105079 23.64849222 51.08105079 25.8359375 53.66796875 C27.09277344 54.91513672 27.09277344 54.91513672 28.375 56.1875 C32.92385392 60.77156177 32.92385392 60.77156177 34 64 C18.76961751 65.06850122 18.76961751 65.06850122 14.53515625 62.51171875 C12.47066115 60.07369641 11 58.25737534 11 55 C10.17757812 55.04640625 9.35515625 55.0928125 8.5078125 55.140625 C-0.61224204 55.43549974 -6.93288743 53.99420288 -14.75 49.375 C-22.2095763 41.5010028 -24.39174123 33.8966664 -24.2734375 23.3203125 C-23.59554968 15.08881757 -19.17535546 8.35519106 -13 3 C-8.62471795 0.30979279 -5.07081014 -1.72842513 0 0 Z " fill="#2E69E8" transform="translate(391,56)"/>
<path d="M0 0 C4.62 0 9.24 0 14 0 C15 1 15 1 15.12025452 3.17030334 C15.1169236 4.60592873 15.1169236 4.60592873 15.11352539 6.07055664 C15.11344986 7.15160172 15.11337433 8.23264679 15.11329651 9.34645081 C15.10813522 10.5224736 15.10297394 11.6984964 15.09765625 12.91015625 C15.0962413 14.10732773 15.09482635 15.30449921 15.09336853 16.53794861 C15.08774979 20.37949066 15.07519411 24.22097543 15.0625 28.0625 C15.05748741 30.65950437 15.05292409 33.25650965 15.04882812 35.85351562 C15.03777427 42.23569679 15.02101792 48.6178443 15 55 C10.52786405 57.23606798 4.98527243 55.38348249 0 55 C0 36.85 0 18.7 0 0 Z " fill="#2562E9" transform="translate(346,55)"/>
<path d="M0 0 C0.33 0 0.66 0 1 0 C1 4.29 1 8.58 1 13 C3.9390625 12.5359375 3.9390625 12.5359375 6.9375 12.0625 C8.03964844 11.88847656 9.14179688 11.71445313 10.27734375 11.53515625 C12.90426929 11.28154864 12.90426929 11.28154864 14 10 C14.36760731 7.67182036 14.70241581 5.3381615 15 3 C15.33 3 15.66 3 16 3 C16.33 7.29 16.66 11.58 17 16 C18.65 16.33 20.3 16.66 22 17 C22.66 15.68 23.32 14.36 24 13 C24.33 13 24.66 13 25 13 C25.25 15.3125 25.25 15.3125 25 18 C22.95575462 19.97610386 21.8823175 21 19 21 C21.98293173 27.20344209 25.20081734 33.13832886 28.86328125 38.96875 C30 41 30 41 30 43 C24.72 43 19.44 43 14 43 C12.32818524 40.04447033 10.66237821 37.08583038 9 34.125 C8.52304687 33.28324219 8.04609375 32.44148438 7.5546875 31.57421875 C7.10351562 30.76855469 6.65234375 29.96289062 6.1875 29.1328125 C5.76855469 28.38918457 5.34960938 27.64555664 4.91796875 26.87939453 C4 25 4 25 4 23 C4.99 23 5.98 23 7 23 C7.33 23.66 7.66 24.32 8 25 C8.33 23.68 8.66 22.36 9 21 C10.98 20.67 12.96 20.34 15 20 C15 19.01 15 18.02 15 17 C14.34 17 13.68 17 13 17 C13 16.01 13 15.02 13 14 C8.71 14 4.42 14 0 14 C0 9.38 0 4.76 0 0 Z " fill="#4477E7" transform="translate(309,67)"/>
<path d="M0 0 C0.94875 0.66 1.8975 1.32 2.875 2 C7.46035076 4.67400332 11.83628477 4.37403169 17 4 C16 6 16 6 13 8 C12.64587656 9.32796291 12.31478446 10.66216607 12 12 C11.02798869 13.35387289 10.03042862 14.69004021 9 16 C10.24716797 15.85691406 10.24716797 15.85691406 11.51953125 15.7109375 C12.60621094 15.60007812 13.69289063 15.48921875 14.8125 15.375 C15.89144531 15.25898437 16.97039062 15.14296875 18.08203125 15.0234375 C21.69649953 14.99440563 23.13106552 16.16324827 25.6875 18.625 C26.120625 19.07875 26.55375 19.5325 27 20 C26.01 20.33 25.02 20.66 24 21 C24.495 22.485 24.495 22.485 25 24 C27.64 24 30.28 24 33 24 C33.33 22.35 33.66 20.7 34 19 C32.68 19 31.36 19 30 19 C29.01 16.69 28.02 14.38 27 12 C26.67 12.66 26.34 13.32 26 14 C25.34 14 24.68 14 24 14 C24.3125 12.125 24.3125 12.125 25 10 C28 8 28 8 32 8 C31.61714844 9.32451172 31.61714844 9.32451172 31.2265625 10.67578125 C30.64849222 14.08105079 30.64849222 14.08105079 32.8359375 16.66796875 C33.67382812 17.49941406 34.51171875 18.33085938 35.375 19.1875 C39.92385392 23.77156177 39.92385392 23.77156177 41 27 C25.76961751 28.06850122 25.76961751 28.06850122 21.53515625 25.51171875 C19.47066115 23.07369641 18 21.25737534 18 18 C17.17757813 18.04640625 16.35515625 18.0928125 15.5078125 18.140625 C6.34528709 18.43687293 -0.32179343 17.18516192 -7.9375 12 C-9.89732711 10.09956159 -11.53927215 8.3064124 -13 6 C-13 5.34 -13 4.68 -13 4 C-11.0625 4.8125 -11.0625 4.8125 -9 6 C-8.67 6.99 -8.34 7.98 -8 9 C-6.68 9 -5.36 9 -4 9 C-3.67 9.66 -3.34 10.32 -3 11 C-2.01 7.37 -1.02 3.74 0 0 Z M-8 4 C-7.34 4 -6.68 4 -6 4 C-6 4.99 -6 5.98 -6 7 C-6.66 6.67 -7.32 6.34 -8 6 C-8 5.34 -8 4.68 -8 4 Z " fill="#346CE8" transform="translate(384,93)"/>
<path d="M0 0 C1.32 0 2.64 0 4 0 C4.62110153 10.66224287 4.62110153 10.66224287 2.375 15.5 C-3.56922564 21.75707962 -3.56922564 21.75707962 -8.26708984 22.2265625 C-10.82147412 22.17012316 -13.33155111 21.9913212 -15.875 21.75 C-16.75414062 21.68425781 -17.63328125 21.61851563 -18.5390625 21.55078125 C-20.69429011 21.38679654 -22.84745447 21.19607345 -25 21 C-25 20.34 -25 19.68 -25 19 C-25.66 19 -26.32 19 -27 19 C-27 18.34 -27 17.68 -27 17 C-27.99 16.67 -28.98 16.34 -30 16 C-30 15.01 -30 14.02 -30 13 C-31.0772721 11.34496905 -31.0772721 11.34496905 -32.5 9.8125 C-33.325 8.884375 -34.15 7.95625 -35 7 C-31.37 7 -27.74 7 -24 7 C-23 9 -23 9 -23.0625 11.5 C-23.28293845 14.17653739 -23.28293845 14.17653739 -21 16 C-18.56282742 15.72965366 -18.56282742 15.72965366 -16 15 C-14.948125 14.8453125 -14.948125 14.8453125 -13.875 14.6875 C-11.19386379 13.70441672 -10.40063049 12.46777753 -9 10 C-8.27954633 6.84881675 -8.27954633 6.84881675 -8 4 C-7.34 4 -6.68 4 -6 4 C-6 4.66 -6 5.32 -6 6 C-5.34 6 -4.68 6 -4 6 C-4 5.34 -4 4.68 -4 4 C-2.68 4.33 -1.36 4.66 0 5 C0 3.35 0 1.7 0 0 Z M-22 17 C-22.33 17.66 -22.66 18.32 -23 19 C-22.34 19 -21.68 19 -21 19 C-21.33 18.34 -21.66 17.68 -22 17 Z " fill="#356DEA" transform="translate(466,88)"/>
<path d="M0 0 C1.0828125 0.3403125 1.0828125 0.3403125 2.1875 0.6875 C1.8575 2.3375 1.5275 3.9875 1.1875 5.6875 C1.5175 5.3575 1.8475 5.0275 2.1875 4.6875 C2.5175 5.6775 2.8475 6.6675 3.1875 7.6875 C2.1975 8.1825 2.1975 8.1825 1.1875 8.6875 C0.8575 9.6775 0.5275 10.6675 0.1875 11.6875 C0.8475 11.6875 1.5075 11.6875 2.1875 11.6875 C2.5175 10.6975 2.8475 9.7075 3.1875 8.6875 C3.5175 8.6875 3.8475 8.6875 4.1875 8.6875 C4.8475 11.3275 5.5075 13.9675 6.1875 16.6875 C7.5075 16.6875 8.8275 16.6875 10.1875 16.6875 C10.1875 18.6675 10.1875 20.6475 10.1875 22.6875 C7.2175 22.6875 4.2475 22.6875 1.1875 22.6875 C-0.8125 18.6875 -0.8125 18.6875 -0.8125 15.6875 C-2.6753949 13.38689466 -2.6753949 13.38689466 -5.6328125 13.4921875 C-6.72335937 13.51539062 -7.81390625 13.53859375 -8.9375 13.5625 C-10.58105469 13.58957031 -10.58105469 13.58957031 -12.2578125 13.6171875 C-13.10085938 13.64039062 -13.94390625 13.66359375 -14.8125 13.6875 C-14.49539063 13.07390625 -14.17828125 12.4603125 -13.8515625 11.828125 C-12.85621515 9.77755979 -12.28838139 7.90827983 -11.8125 5.6875 C-14.7825 5.1925 -14.7825 5.1925 -17.8125 4.6875 C-17.8125 4.3575 -17.8125 4.0275 -17.8125 3.6875 C-17.14863281 3.65011719 -16.48476563 3.61273438 -15.80078125 3.57421875 C-10.32908537 3.16683701 -4.84702018 -0.5385578 0 0 Z " fill="#2563EA" transform="translate(407.8125,95.3125)"/>
<path d="M0 0 C3.97284728 4.58405456 4.08890445 6.62233116 5 13 C0.05 13 -4.9 13 -10 13 C-10.66 11.35 -11.32 9.7 -12 8 C-16.65052872 7.73067479 -16.65052872 7.73067479 -21 9 C-21 8.01 -21 7.02 -21 6 C-19.35 5.67 -17.7 5.34 -16 5 C-16 3.68 -16 2.36 -16 1 C-14.68 0.34 -13.36 -0.32 -12 -1 C-11.67 -0.01 -11.34 0.98 -11 2 C-10.01 2.33 -9.02 2.66 -8 3 C-7.34 2.67 -6.68 2.34 -6 2 C-5.01 2.33 -4.02 2.66 -3 3 C-3.495 2.54625 -3.99 2.0925 -4.5 1.625 C-6 0 -6 0 -6 -2 C-12.93 -2 -19.86 -2 -27 -2 C-19.07992723 -7.28004851 -7.49563538 -5.43563397 0 0 Z " fill="#497BE9" transform="translate(465,59)"/>
<path d="M0 0 C0.70125 0.53625 1.4025 1.0725 2.125 1.625 C2.125 2.285 2.125 2.945 2.125 3.625 C3.445 3.295 4.765 2.965 6.125 2.625 C6.125 3.615 6.125 4.605 6.125 5.625 C5.135 5.955 4.145 6.285 3.125 6.625 C3.455 7.40875 3.785 8.1925 4.125 9 C5.125 11.625 5.125 11.625 5.125 13.625 C6.445 13.625 7.765 13.625 9.125 13.625 C9.125 12.635 9.125 11.645 9.125 10.625 C9.785 10.625 10.445 10.625 11.125 10.625 C11.125 9.635 11.125 8.645 11.125 7.625 C12.115 7.625 13.105 7.625 14.125 7.625 C12.64807692 12.30192308 12.64807692 12.30192308 10 13.9375 C9.38125 14.164375 8.7625 14.39125 8.125 14.625 C8.125 15.285 8.125 15.945 8.125 16.625 C7.135 16.625 6.145 16.625 5.125 16.625 C5.125 17.285 5.125 17.945 5.125 18.625 C4.465 18.625 3.805 18.625 3.125 18.625 C2.795 19.615 2.465 20.605 2.125 21.625 C3.99697454 24.31933317 3.99697454 24.31933317 6.125 26.625 C5.465 26.625 4.805 26.625 4.125 26.625 C3.795 27.945 3.465 29.265 3.125 30.625 C2.465 30.625 1.805 30.625 1.125 30.625 C0.939375 28.9234375 0.939375 28.9234375 0.75 27.1875 C0.54375 26.011875 0.3375 24.83625 0.125 23.625 C-2.57683055 22.27408472 -4.99308206 22.28641942 -8 22.0625 C-9.64355469 21.93681641 -9.64355469 21.93681641 -11.3203125 21.80859375 C-12.58488281 21.71771484 -12.58488281 21.71771484 -13.875 21.625 C-13.875 25.255 -13.875 28.885 -13.875 32.625 C-14.205 32.625 -14.535 32.625 -14.875 32.625 C-14.875 28.665 -14.875 24.705 -14.875 20.625 C-12.10807292 20.49479167 -9.34114583 20.36458333 -6.57421875 20.234375 C-3.74939735 19.86903877 -3.74939735 19.86903877 -2.08203125 17.640625 C-1.48455078 16.64289063 -1.48455078 16.64289063 -0.875 15.625 C-0.545 15.295 -0.215 14.965 0.125 14.625 C-0.535 13.965 -1.195 13.305 -1.875 12.625 C-1.58702981 11.28113912 -1.24284131 9.9492287 -0.875 8.625 C-0.83654557 6.62536972 -0.82955719 4.62448367 -0.875 2.625 C-3.44393838 1.34053081 -5.64076337 1.29522856 -8.5 1.0625 C-9.50289063 0.97871094 -10.50578125 0.89492187 -11.5390625 0.80859375 C-12.30992187 0.74800781 -13.08078125 0.68742187 -13.875 0.625 C-13.875 3.925 -13.875 7.225 -13.875 10.625 C-10.575 10.625 -7.275 10.625 -3.875 10.625 C-3.875 10.955 -3.875 11.285 -3.875 11.625 C-7.505 11.625 -11.135 11.625 -14.875 11.625 C-14.875 7.665 -14.875 3.705 -14.875 -0.375 C-4.79760062 -2.29450464 -4.79760062 -2.29450464 0 0 Z " fill="#5382E7" transform="translate(272.875,66.375)"/>
<path d="M0 0 C2.1875 -0.3125 2.1875 -0.3125 5 0 C8.61293048 3.03814608 10.68165146 5.26011505 11.23828125 10.05078125 C11.41972808 15.58013476 10.73276814 18.64510384 7 23 C3.6 26 3.6 26 1 26 C1 25.34 1 24.68 1 24 C1.66 24 2.32 24 3 24 C2.814375 23.278125 2.62875 22.55625 2.4375 21.8125 C1.98004693 18.87173027 2.26483643 16.85896942 3 14 C1.68 13.34 0.36 12.68 -1 12 C-1 10.68 -1 9.36 -1 8 C-2.4166747 6.2488427 -2.4166747 6.2488427 -4 5 C-3 3 -3 3 0 2 C0 1.34 0 0.68 0 0 Z " fill="#2562E9" transform="translate(278,83)"/>
<path d="M0 0 C4.62 0 9.24 0 14 0 C15 1 15 1 15.12025452 3.17030334 C15.1169236 4.60592873 15.1169236 4.60592873 15.11352539 6.07055664 C15.11344986 7.15160172 15.11337433 8.23264679 15.11329651 9.34645081 C15.10813522 10.5224736 15.10297394 11.6984964 15.09765625 12.91015625 C15.0962413 14.10732773 15.09482635 15.30449921 15.09336853 16.53794861 C15.08774979 20.37949066 15.07519411 24.22097543 15.0625 28.0625 C15.05748741 30.65950437 15.05292409 33.25650965 15.04882812 35.85351562 C15.03777427 42.23569679 15.02101792 48.6178443 15 55 C10.52786405 57.23606798 4.98527243 55.38348249 0 55 C0 36.85 0 18.7 0 0 Z M1 2 C1 19.16 1 36.32 1 54 C4.96 54 8.92 54 13 54 C13.02464113 46.75512951 13.0428318 39.51028318 13.05493164 32.26538086 C13.05997356 29.79857967 13.06680691 27.33178148 13.07543945 24.86499023 C13.08751125 21.32795471 13.09322956 17.79095855 13.09765625 14.25390625 C13.10281754 13.14350479 13.10797882 12.03310333 13.11329651 10.88905334 C13.11337204 9.86807053 13.11344757 8.84708771 13.11352539 7.79516602 C13.115746 6.89137711 13.11796661 5.9875882 13.12025452 5.05641174 C13.22900462 3.00746419 13.22900462 3.00746419 12 2 C8.37 2 4.74 2 1 2 Z " fill="#9DB4E9" transform="translate(346,55)"/>
<path d="M0 0 C-0.38285156 1.32451172 -0.38285156 1.32451172 -0.7734375 2.67578125 C-1.35150778 6.08105079 -1.35150778 6.08105079 0.8359375 8.66796875 C1.67382812 9.49941406 2.51171875 10.33085938 3.375 11.1875 C7.92385392 15.77156177 7.92385392 15.77156177 9 19 C-6.23038249 20.06850122 -6.23038249 20.06850122 -10.46484375 17.51171875 C-12.52933885 15.07369641 -14 13.25737534 -14 10 C-14.86882812 10.02320312 -15.73765625 10.04640625 -16.6328125 10.0703125 C-17.78523438 10.08835937 -18.93765625 10.10640625 -20.125 10.125 C-21.83042969 10.15980469 -21.83042969 10.15980469 -23.5703125 10.1953125 C-27.05757767 9.99672109 -29.7553862 9.2524801 -33 8 C-28.62202273 6.76559634 -24.45755324 6.81609019 -19.9375 6.8125 C-19.12216797 6.80025391 -18.30683594 6.78800781 -17.46679688 6.77539062 C-16.29020508 6.77249023 -16.29020508 6.77249023 -15.08984375 6.76953125 C-14.37691162 6.76542236 -13.66397949 6.76131348 -12.92944336 6.75708008 C-9.43143014 7.19748539 -7.32762176 9.56153911 -5 12 C-5.99 12.33 -6.98 12.66 -8 13 C-7.67 13.99 -7.34 14.98 -7 16 C-4.36 16 -1.72 16 1 16 C1.33 14.35 1.66 12.7 2 11 C0.68 11 -0.64 11 -2 11 C-2.99 8.69 -3.98 6.38 -5 4 C-5.33 4.66 -5.66 5.32 -6 6 C-6.66 6 -7.32 6 -8 6 C-7.6875 4.125 -7.6875 4.125 -7 2 C-4 0 -4 0 0 0 Z " fill="#7E9FEA" transform="translate(416,101)"/>
<path d="M0 0 C6.39037231 -0.02527062 12.78073183 -0.04283317 19.17114258 -0.05493164 C21.34692873 -0.05997308 23.52271147 -0.06680607 25.69848633 -0.07543945 C28.81853067 -0.08751338 31.93853038 -0.09323005 35.05859375 -0.09765625 C36.52733192 -0.10539818 36.52733192 -0.10539818 38.02574158 -0.11329651 C39.37702904 -0.11340981 39.37702904 -0.11340981 40.75561523 -0.11352539 C41.95141457 -0.11685631 41.95141457 -0.11685631 43.17137146 -0.12025452 C45 0 45 0 46 1 C46.09993532 3.0605531 46.13080906 5.1245259 46.1328125 7.1875 C46.13474609 9.07082031 46.13474609 9.07082031 46.13671875 10.9921875 C46.13462402 11.64928711 46.1325293 12.30638672 46.13037109 12.98339844 C46.12502234 14.99161335 46.13031691 16.99960459 46.13671875 19.0078125 C46.13542969 20.26335937 46.13414063 21.51890625 46.1328125 22.8125 C46.13168457 23.97394531 46.13055664 25.13539063 46.12939453 26.33203125 C46 29 46 29 45 30 C43.58774954 30.0928726 42.17091066 30.11746772 40.75561523 30.11352539 C39.85475693 30.11344986 38.95389862 30.11337433 38.02574158 30.11329651 C37.04658279 30.10813522 36.06742401 30.10297394 35.05859375 30.09765625 C34.06118668 30.0962413 33.0637796 30.09482635 32.03614807 30.09336853 C28.83656876 30.08775114 25.63705831 30.07519571 22.4375 30.0625 C20.27408955 30.05748724 18.11067801 30.05292395 15.94726562 30.04882812 C10.63148675 30.03777607 5.31574829 30.02102104 0 30 C0 29.67 0 29.34 0 29 C14.19 28.67 28.38 28.34 43 28 C43.33 19.09 43.66 10.18 44 1 C29.48 1 14.96 1 0 1 C0 0.67 0 0.34 0 0 Z " fill="#92ABE3" transform="translate(65,123)"/>
<path d="M0 0 C3.6607519 1.22025063 3.92339441 2.126491 5.6875 5.4375 C6.34298828 6.64212891 6.34298828 6.64212891 7.01171875 7.87109375 C8 10 8 10 8 12 C3.05 12 -1.9 12 -7 12 C-7.33 8.7 -7.66 5.4 -8 2 C-7.05125 1.855625 -6.1025 1.71125 -5.125 1.5625 C-2.1065506 1.17064601 -2.1065506 1.17064601 0 0 Z " fill="#3D72E4" transform="translate(331,98)"/>
<path d="M0 0 C4.62 0 9.24 0 14 0 C14.66 1.65 15.32 3.3 16 5 C15.34 5 14.68 5 14 5 C13.67 4.34 13.34 3.68 13 3 C9.7 3 6.4 3 3 3 C4.98 5.31 6.96 7.62 9 10 C8.67 10.33 8.34 10.66 8 11 C8.66 11.33 9.32 11.66 10 12 C10 12.66 10 13.32 10 14 C10.66 14 11.32 14 12 14 C12 14.66 12 15.32 12 16 C17.28 16 22.56 16 28 16 C27.67 16.66 27.34 17.32 27 18 C18.1519444 18.3981625 11.11382824 18.57724195 4.125 12.5 C-0.02668522 7.61566445 0 7.11996836 0 0 Z " fill="#2364DF" transform="translate(429,93)"/>
<path d="M0 0 C1.32 0 2.64 0 4 0 C4 0.66 4 1.32 4 2 C-1.62332842 5.74888561 -7.64403596 5.16026649 -14.19140625 5.16796875 C-15.17366684 5.17129715 -16.15592743 5.17462555 -17.16795349 5.17805481 C-19.23981255 5.18310725 -21.31167971 5.18546366 -23.38354492 5.18530273 C-26.55466017 5.18749458 -29.72543038 5.20568285 -32.89648438 5.22460938 C-34.91145715 5.22754255 -36.92643156 5.22952785 -38.94140625 5.23046875 C-40.36339073 5.24124702 -40.36339073 5.24124702 -41.81410217 5.25224304 C-42.69859543 5.24916641 -43.58308868 5.24608978 -44.49438477 5.24291992 C-45.26984146 5.24434494 -46.04529816 5.24576996 -46.84425354 5.24723816 C-49 5 -49 5 -53 3 C-35.51 3 -18.02 3 0 3 C0 2.01 0 1.02 0 0 Z " fill="#799AE0" transform="translate(113,86)"/>
<path d="M0 0 C0.98226059 -0.0033284 1.96452118 -0.0066568 2.97654724 -0.01008606 C5.0484063 -0.0151385 7.12027346 -0.01749491 9.19213867 -0.01733398 C12.36325392 -0.01952583 15.53402413 -0.0377141 18.70507812 -0.05664062 C20.7200509 -0.0595738 22.73502531 -0.0615591 24.75 -0.0625 C26.17198448 -0.07327827 26.17198448 -0.07327827 27.62269592 -0.08427429 C28.50718918 -0.08119766 29.39168243 -0.07812103 30.30297852 -0.07495117 C31.46616356 -0.0770887 31.46616356 -0.0770887 32.65284729 -0.07926941 C34.80859375 0.16796875 34.80859375 0.16796875 38.80859375 2.16796875 C11.58359375 2.66296875 11.58359375 2.66296875 -16.19140625 3.16796875 C-15.86140625 2.50796875 -15.53140625 1.84796875 -15.19140625 1.16796875 C-10.33597918 -0.38155704 -5.04353626 0.00593316 0 0 Z " fill="#7C9AE2" transform="translate(166.19140625,76.83203125)"/>
<path d="M0 0 C0.33 0 0.66 0 1 0 C1.33 8.91 1.66 17.82 2 27 C16.19 27.33 30.38 27.66 45 28 C45 28.33 45 28.66 45 29 C31.47 29 17.94 29 4 29 C3.07461831 32.70152678 2.91825838 33.63458162 4 37 C3.01 37.495 3.01 37.495 2 38 C1.67 36.35 1.34 34.7 1 33 C0.01 32.67 -0.98 32.34 -2 32 C-1.84152588 31.47438477 -1.68305176 30.94876953 -1.51977539 30.40722656 C-0.87265174 27.41021426 -0.78111912 24.54945792 -0.68359375 21.484375 C-0.64169922 20.23398437 -0.59980469 18.98359375 -0.55664062 17.6953125 C-0.51732422 16.39335938 -0.47800781 15.09140625 -0.4375 13.75 C-0.39431641 12.43257812 -0.35113281 11.11515625 -0.30664062 9.7578125 C-0.20058083 6.50531212 -0.09851976 3.25273608 0 0 Z " fill="#84A3E9" transform="translate(155,16)"/>
<path d="M0 0 C3.63 0.66 7.26 1.32 11 2 C11.33 2.99 11.66 3.98 12 5 C10.75 6.5625 10.75 6.5625 9 8 C6.8125 7.6875 6.8125 7.6875 5 7 C5.66 8.32 6.32 9.64 7 11 C5.35 11 3.7 11 2 11 C1.67 10.34 1.34 9.68 1 9 C-1.3140622 8.26924352 -3.64828869 7.59861742 -6 7 C-6 6.34 -6 5.68 -6 5 C-4.35 4.67 -2.7 4.34 -1 4 C-0.67 2.68 -0.34 1.36 0 0 Z " fill="#2463E9" transform="translate(446,77)"/>
<path d="M0 0 C0.66 0 1.32 0 2 0 C1.67 1.32 1.34 2.64 1 4 C1.721875 3.649375 2.44375 3.29875 3.1875 2.9375 C6.3122705 1.89590983 7.88161996 2.10903428 11 3 C11.43200679 7.75207471 9.98489083 10.78210698 8 15 C7.34 14.34 6.68 13.68 6 13 C5.34 12.87625 4.68 12.7525 4 12.625 C2 12 2 12 0.875 10.0625 C0.58625 9.381875 0.2975 8.70125 0 8 C-0.66 7.34 -1.32 6.68 -2 6 C-1.44444444 1.44444444 -1.44444444 1.44444444 0 0 Z M3 7 C3 7.99 3 8.98 3 10 C3.66 10 4.32 10 5 10 C5 9.01 5 8.02 5 7 C4.34 7 3.68 7 3 7 Z " fill="#2562EA" transform="translate(373,90)"/>
<path d="M0 0 C3.63 0 7.26 0 11 0 C12 2 12 2 11.9375 4.4375 C11.77767869 7.24528606 11.77767869 7.24528606 14 10 C13.625 12.1875 13.625 12.1875 13 14 C12.01 14 11.02 14 10 14 C10 13.34 10 12.68 10 12 C9.34 12 8.68 12 8 12 C8 11.34 8 10.68 8 10 C7.01 9.67 6.02 9.34 5 9 C5 8.01 5 7.02 5 6 C3.9227279 4.34496905 3.9227279 4.34496905 2.5 2.8125 C1.675 1.884375 0.85 0.95625 0 0 Z " fill="#2562EC" transform="translate(431,95)"/>
<path d="M0 0 C0.99 0.99 1.98 1.98 3 3 C2.01 4.485 2.01 4.485 1 6 C0.57074219 6.71671875 0.14148438 7.4334375 -0.30078125 8.171875 C-2 10 -2 10 -4.48046875 10.390625 C-5.82044922 10.32101563 -5.82044922 10.32101563 -7.1875 10.25 C-8.08855469 10.21390625 -8.98960937 10.1778125 -9.91796875 10.140625 C-10.60503906 10.09421875 -11.29210937 10.0478125 -12 10 C-11.23282894 6.64978508 -10.52929943 4.44208221 -8 2 C-4.9375 1.875 -4.9375 1.875 -2 2 C-1.34 1.34 -0.68 0.68 0 0 Z " fill="#2562E9" transform="translate(271,77)"/>
<path d="M0 0 C0.70125 0.53625 1.4025 1.0725 2.125 1.625 C2.125 2.285 2.125 2.945 2.125 3.625 C3.445 3.295 4.765 2.965 6.125 2.625 C6.125 3.615 6.125 4.605 6.125 5.625 C5.135 5.955 4.145 6.285 3.125 6.625 C3.475625 7.40875 3.82625 8.1925 4.1875 9 C4.6515625 10.299375 4.6515625 10.299375 5.125 11.625 C4.795 12.285 4.465 12.945 4.125 13.625 C2.125 12.625 2.125 12.625 0.125 10.625 C-0.21875 8.71484375 -0.21875 8.71484375 -0.375 6.5625 C-0.6225 4.6134375 -0.6225 4.6134375 -0.875 2.625 C-3.44393838 1.34053081 -5.64076337 1.29522856 -8.5 1.0625 C-9.50289063 0.97871094 -10.50578125 0.89492187 -11.5390625 0.80859375 C-12.30992187 0.74800781 -13.08078125 0.68742187 -13.875 0.625 C-13.875 3.925 -13.875 7.225 -13.875 10.625 C-10.575 10.625 -7.275 10.625 -3.875 10.625 C-3.875 10.955 -3.875 11.285 -3.875 11.625 C-7.505 11.625 -11.135 11.625 -14.875 11.625 C-14.875 7.665 -14.875 3.705 -14.875 -0.375 C-4.79760062 -2.29450464 -4.79760062 -2.29450464 0 0 Z " fill="#7396E1" transform="translate(272.875,66.375)"/>
<path d="M0 0 C-0.99 0 -1.98 0 -3 0 C-3.24492187 0.61359375 -3.48984375 1.2271875 -3.7421875 1.859375 C-5.25052285 4.42635567 -6.44256788 5.03857904 -9.125 6.25 C-10.21167969 6.75273438 -10.21167969 6.75273438 -11.3203125 7.265625 C-12.15175781 7.62914062 -12.15175781 7.62914062 -13 8 C-12.67 8.66 -12.34 9.32 -12 10 C-12.99 10 -13.98 10 -15 10 C-15.103125 10.639375 -15.20625 11.27875 -15.3125 11.9375 C-15.539375 12.618125 -15.76625 13.29875 -16 14 C-16.99 14.33 -17.98 14.66 -19 15 C-19.33 15.66 -19.66 16.32 -20 17 C-20.66 17 -21.32 17 -22 17 C-21.2030518 10.7240329 -17.57680816 7.12373487 -13 3 C-8.63067396 0.25132267 -5.08702922 -1.71859095 0 0 Z " fill="#6289E4" transform="translate(391,56)"/>
<path d="M0 0 C0.33 0 0.66 0 1 0 C1.06951349 8.92736048 1.12281799 17.85462778 1.15543652 26.78219986 C1.17109187 30.92765106 1.19232757 35.07291709 1.22631836 39.21826172 C1.25891675 43.21883718 1.276854 47.21923453 1.28463173 51.21993256 C1.2901744 52.74617059 1.30099794 54.27239889 1.31719017 55.7985611 C1.33897148 57.93655963 1.34196673 60.07382241 1.34057617 62.21191406 C1.34723801 63.4288092 1.35389984 64.64570435 1.36076355 65.8994751 C0.9734599 69.22809462 0.26269851 70.58882715 -2 73 C-2.495 70.525 -2.495 70.525 -3 68 C-1.515 67.505 -1.515 67.505 0 67 C0 44.89 0 22.78 0 0 Z " fill="#3C6EDA" transform="translate(121,12)"/>
<path d="M0 0 C3.60409919 -0.05800828 7.20807851 -0.09359869 10.8125 -0.125 C12.34874023 -0.15013672 12.34874023 -0.15013672 13.91601562 -0.17578125 C14.89892578 -0.18222656 15.88183594 -0.18867187 16.89453125 -0.1953125 C17.80050049 -0.20578613 18.70646973 -0.21625977 19.63989258 -0.22705078 C23.41310487 0.13594575 25.49382407 2.37448236 28 5 C25.74778616 6.36741555 24.47442242 7.04066478 21.8125 6.8125 C21.214375 6.544375 20.61625 6.27625 20 6 C19.67 5.01 19.34 4.02 19 3 C18.13117188 3.02320312 17.26234375 3.04640625 16.3671875 3.0703125 C15.21476562 3.08835937 14.06234375 3.10640625 12.875 3.125 C11.16957031 3.15980469 11.16957031 3.15980469 9.4296875 3.1953125 C5.94242233 2.99672109 3.2446138 2.2524801 0 1 C0 0.67 0 0.34 0 0 Z " fill="#5783E2" transform="translate(383,108)"/>
<path d="M0 0 C0.66 0.33 1.32 0.66 2 1 C3.35593231 5.06779694 3.53075585 8.74668259 3 13 C0.96628494 16.92216475 -1.19197266 19.7151836 -5 22 C-5.66 22 -6.32 22 -7 22 C-7 21.34 -7 20.68 -7 20 C-6.34 20 -5.68 20 -5 20 C-5.33 18.35 -5.66 16.7 -6 15 C-1.375 11 -1.375 11 2 11 C1.34 7.37 0.68 3.74 0 0 Z " fill="#668CE2" transform="translate(286,87)"/>
<path d="M0 0 C0.99 0 1.98 0 3 0 C3 10.23 3 20.46 3 31 C2.34 31 1.68 31 1 31 C-0.06888524 27.52334905 -0.11475767 24.32862522 -0.09765625 20.703125 C-0.09443359 19.49785156 -0.09121094 18.29257813 -0.08789062 17.05078125 C-0.07951172 15.79652344 -0.07113281 14.54226562 -0.0625 13.25 C-0.05798828 11.98027344 -0.05347656 10.71054688 -0.04882812 9.40234375 C-0.03704556 6.26818164 -0.02059416 3.13411459 0 0 Z " fill="#4476E2" transform="translate(62,122)"/>
<path d="M0 0 C0.33 0 0.66 0 1 0 C1 6.6 1 13.2 1 20 C-3.29 20 -7.58 20 -12 20 C-12 19.67 -12 19.34 -12 19 C-9.03 19 -6.06 19 -3 19 C-2.86722656 17.96359375 -2.73445313 16.9271875 -2.59765625 15.859375 C-2.41939361 14.48956735 -2.24100138 13.11977656 -2.0625 11.75 C-1.93198242 10.72712891 -1.93198242 10.72712891 -1.79882812 9.68359375 C-1.3684062 6.39963389 -0.91205869 3.18809706 0 0 Z " fill="#507CDE" transform="translate(309,90)"/>
<path d="M0 0 C0.33 0 0.66 0 1 0 C1.33 5.28 1.66 10.56 2 16 C2.33 16 2.66 16 3 16 C3 21.61 3 27.22 3 33 C0.02240032 30.02240032 0.04459686 27.16057337 -0.11352539 23.0456543 C-0.10828857 21.98258057 -0.10305176 20.91950684 -0.09765625 19.82421875 C-0.09443359 18.66728516 -0.09121094 17.51035156 -0.08789062 16.31835938 C-0.07951172 15.12017578 -0.07113281 13.92199219 -0.0625 12.6875 C-0.05798828 11.46998047 -0.05347656 10.25246094 -0.04882812 8.99804688 C-0.03706578 5.99864774 -0.02062826 2.99934911 0 0 Z " fill="#83A3E9" transform="translate(142,17)"/>
<path d="M0 0 C-0.2475 0.9075 -0.495 1.815 -0.75 2.75 C-1.38259327 6.08837848 -1.38259327 6.08837848 0.9375 8.375 C1.618125 8.91125 2.29875 9.4475 3 10 C2.67 10.66 2.34 11.32 2 12 C0.1875 11.9375 0.1875 11.9375 -2 11 C-3.75 7.4375 -3.75 7.4375 -5 4 C-5.33 4.66 -5.66 5.32 -6 6 C-6.66 6 -7.32 6 -8 6 C-7.6875 4.125 -7.6875 4.125 -7 2 C-4 0 -4 0 0 0 Z " fill="#5181E6" transform="translate(416,101)"/>
<path d="M0 0 C0.66 0.99 1.32 1.98 2 3 C0.515 5.475 0.515 5.475 -1 8 C-2.65 7.67 -4.3 7.34 -6 7 C-5.67 7.99 -5.34 8.98 -5 10 C-5.66 10 -6.32 10 -7 10 C-7.98120464 6.94736336 -7.98120464 5.05263664 -7 2 C-6.21625 1.855625 -5.4325 1.71125 -4.625 1.5625 C-2.03578982 1.12201075 -2.03578982 1.12201075 0 0 Z " fill="#2562EA" transform="translate(331,98)"/>
<path d="M0 0 C-0.33 0.99 -0.66 1.98 -1 3 C-2.7015625 3.4021875 -2.7015625 3.4021875 -4.4375 3.8125 C-6.2009375 4.4003125 -6.2009375 4.4003125 -8 5 C-9.47562227 7.92583694 -9.47562227 7.92583694 -10 11 C-10.33 11.66 -10.66 12.32 -11 13 C-11.66 13 -12.32 13 -13 13 C-12.54617044 8.12133225 -11.3639156 5.56179299 -8 2 C-4.77208445 -0.1519437 -3.71599191 -0.20086443 0 0 Z " fill="#5580DF" transform="translate(156,3)"/>
<path d="M0 0 C0.99 0.66 1.98 1.32 3 2 C3 2.99 3 3.98 3 5 C3.66 5 4.32 5 5 5 C5 4.34 5 3.68 5 3 C5.66 3 6.32 3 7 3 C6.67 4.65 6.34 6.3 6 8 C5.34 8 4.68 8 4 8 C4.33 9.32 4.66 10.64 5 12 C0.32307692 10.52307692 0.32307692 10.52307692 -1.3125 7.875 C-1.539375 7.25625 -1.76625 6.6375 -2 6 C-1.34 6 -0.68 6 0 6 C0 6.66 0 7.32 0 8 C0.66 8 1.32 8 2 8 C1.67 7.4225 1.34 6.845 1 6.25 C0 4 0 4 0 0 Z " fill="#2464E3" transform="translate(55,77)"/>
<path d="M0 0 C0 0.66 0 1.32 0 2 C0.66 2 1.32 2 2 2 C2 2.66 2 3.32 2 4 C7.28 4 12.56 4 18 4 C17.67 4.66 17.34 5.32 17 6 C9.61834645 6.33217441 3.70477409 6.28913446 -3 3 C-3.33 2.34 -3.66 1.68 -4 1 C-2 0 -2 0 0 0 Z " fill="#6F93DE" transform="translate(439,105)"/>
<path d="M0 0 C2.47322522 3.70983783 2.29636889 6.58587785 2.25 10.875 C2.25773437 11.58269531 2.26546875 12.29039063 2.2734375 13.01953125 C2.25815975 17.12160618 1.82216616 20.31228278 0 24 C-2.83022097 20.00439392 -1.76210446 16.57262677 -1 12 C-0.34 12 0.32 12 1 12 C0.67 8.04 0.34 4.08 0 0 Z " fill="#5D89E5" transform="translate(421,72)"/>
<path d="M0 0 C0.66 0 1.32 0 2 0 C2.93065133 2.60582371 3.14917407 3.64198224 2.0625 6.25 C1.5365625 7.11625 1.5365625 7.11625 1 8 C-0.32 8 -1.64 8 -3 8 C-3.33 8.99 -3.66 9.98 -4 11 C-4.75 9.375 -4.75 9.375 -5 7 C-3.50594347 4.4601039 -2.09462345 2.09462345 0 0 Z " fill="#326AE1" transform="translate(148,80)"/>
<path d="M0 0 C4.62 0 9.24 0 14 0 C14.66 1.65 15.32 3.3 16 5 C15.34 5 14.68 5 14 5 C13.67 4.34 13.34 3.68 13 3 C9.37 3 5.74 3 2 3 C1.34 4.32 0.68 5.64 0 7 C0 4.69 0 2.38 0 0 Z " fill="#84A0E2" transform="translate(429,93)"/>
<path d="M0 0 C10.56 0 21.12 0 32 0 C32 0.33 32 0.66 32 1 C22.43 1.33 12.86 1.66 3 2 C2.34 3.65 1.68 5.3 1 7 C0.67 7 0.34 7 0 7 C0 4.69 0 2.38 0 0 Z " fill="#3768D9" transform="translate(246,56)"/>
<path d="M0 0 C0.99 0 1.98 0 3 0 C3 3.63 3 7.26 3 11 C2.01 11.33 1.02 11.66 0 12 C-0.33 11.01 -0.66 10.02 -1 9 C-0.67 8.34 -0.34 7.68 0 7 C-0.66 6.67 -1.32 6.34 -2 6 C-1.34 4.02 -0.68 2.04 0 0 Z " fill="#2363E9" transform="translate(466,88)"/>
<path d="M0 0 C1.65 0 3.3 0 5 0 C5.33 0.66 5.66 1.32 6 2 C8.02463255 2.65213292 8.02463255 2.65213292 10 3 C10 3.99 10 4.98 10 6 C10.66 6.33 11.32 6.66 12 7 C6.75900345 6.58894145 3.75960806 5.75960806 0 2 C0 1.34 0 0.68 0 0 Z " fill="#5182E5" transform="translate(145,50)"/>
<path d="M0 0 C0.33 0 0.66 0 1 0 C1.33 4.29 1.66 8.58 2 13 C3.98 13.66 5.96 14.32 8 15 C8 16.32 8 17.64 8 19 C4.09631918 17.46641111 2.0549951 15.66963411 0 12 C-0.33562583 7.97773416 -0.23117269 4.02625777 0 0 Z " fill="#6C91E1" transform="translate(429,65)"/>
<path d="M0 0 C0.99 0 1.98 0 3 0 C1.52307692 4.67692308 1.52307692 4.67692308 -1.125 6.3125 C-1.74375 6.539375 -2.3625 6.76625 -3 7 C-3 7.66 -3 8.32 -3 9 C-3.99 9 -4.98 9 -6 9 C-6.33 9.66 -6.66 10.32 -7 11 C-7 9.68 -7 8.36 -7 7 C-5.35 6.67 -3.7 6.34 -2 6 C-2 5.01 -2 4.02 -2 3 C-1.34 3 -0.68 3 0 3 C0 2.01 0 1.02 0 0 Z " fill="#5E88E7" transform="translate(284,74)"/>
<path d="M0 0 C0.99 0.99 1.98 1.98 3 3 C2.01 3 1.02 3 0 3 C-0.103125 3.639375 -0.20625 4.27875 -0.3125 4.9375 C-0.539375 5.618125 -0.76625 6.29875 -1 7 C-1.99 7.33 -2.98 7.66 -4 8 C-4.33 8.66 -4.66 9.32 -5 10 C-5.66 10 -6.32 10 -7 10 C-6.47229401 6.20051686 -5.62859821 3.83079807 -3 1 C-2.01 0.67 -1.02 0.34 0 0 Z " fill="#5A85E3" transform="translate(376,63)"/>
<path d="M0 0 C-0.99 0.66 -1.98 1.32 -3 2 C-3 1.34 -3 0.68 -3 0 C-9.93 0 -16.86 0 -24 0 C-17.14384645 -4.57076903 -7.22153396 -3.61076698 0 0 Z " fill="#7C9DE9" transform="translate(462,57)"/>
<path d="M0 0 C1.9375 0.8125 1.9375 0.8125 4 2 C4.33 2.99 4.66 3.98 5 5 C6.32 5 7.64 5 9 5 C9.33 6.65 9.66 8.3 10 10 C6.17377257 8.4411666 3.74852621 6.04566418 1 3 C0.67 2.01 0.34 1.02 0 0 Z M5 0 C5.66 0 6.32 0 7 0 C7 0.99 7 1.98 7 3 C6.34 2.67 5.68 2.34 5 2 C5 1.34 5 0.68 5 0 Z " fill="#608AE2" transform="translate(371,97)"/>
<path d="M0 0 C3.81936528 1.55603771 6.26044438 3.95604931 9 7 C9 7.66 9 8.32 9 9 C7.35 9 5.7 9 4 9 C4 7.68 4 6.36 4 5 C3.34 5 2.68 5 2 5 C1.34 3.35 0.68 1.7 0 0 Z " fill="#5882E1" transform="translate(410,59)"/>
<path d="M0 0 C0.99 0.33 1.98 0.66 3 1 C3.73046875 3.06640625 3.73046875 3.06640625 4.1875 5.5625 C4.34605469 6.38878906 4.50460937 7.21507813 4.66796875 8.06640625 C4.77753906 8.70449219 4.88710938 9.34257813 5 10 C4.01 10 3.02 10 2 10 C-0.09350689 6.5980513 -0.17942163 3.94727588 0 0 Z " fill="#537EE4" transform="translate(320,99)"/>
<path d="M0 0 C2.21399303 3.79541663 3.00980198 7.75629421 4 12 C2.68 12.33 1.36 12.66 0 13 C-0.66 12.01 -1.32 11.02 -2 10 C-1.67 9.34 -1.34 8.68 -1 8 C-0.34 8 0.32 8 1 8 C1 7.01 1 6.02 1 5 C0.34 4.67 -0.32 4.34 -1 4 C-0.67 2.68 -0.34 1.36 0 0 Z " fill="#5987E9" transform="translate(380,81)"/>
<path d="M0 0 C3.465 1.485 3.465 1.485 7 3 C7 4.32 7 5.64 7 7 C5.02 7.66 3.04 8.32 1 9 C1.20625 8.2575 1.4125 7.515 1.625 6.75 C2.04408751 3.67669159 1.61949011 2.57213134 0 0 Z " fill="#2364EA" transform="translate(275,73)"/>
<path d="M0 0 C1.32 0 2.64 0 4 0 C4 0.99 4 1.98 4 3 C4.99 3 5.98 3 7 3 C7 2.01 7 1.02 7 0 C9.31 0.33 11.62 0.66 14 1 C12.67661368 1.68620031 11.34050052 2.34786461 10 3 C8.7934375 3.6496875 8.7934375 3.6496875 7.5625 4.3125 C5 5 5 5 2.1875 3.75 C1.465625 3.1725 0.74375 2.595 0 2 C0 1.34 0 0.68 0 0 Z " fill="#5989E4" transform="translate(380,66)"/>
<path d="M0 0 C2.3125 -0.25 2.3125 -0.25 5 0 C6.8125 2 6.8125 2 8 4 C5.36 4.33 2.72 4.66 0 5 C0 3.35 0 1.7 0 0 Z " fill="#3E73DF" transform="translate(278,83)"/>
<path d="M0 0 C2 2 2 2 2.125 4.625 C2.08375 5.40875 2.0425 6.1925 2 7 C0.35 7.66 -1.3 8.32 -3 9 C-3 8.34 -3 7.68 -3 7 C-2.34 7 -1.68 7 -1 7 C-1.309375 5.824375 -1.309375 5.824375 -1.625 4.625 C-1.74875 3.75875 -1.8725 2.8925 -2 2 C-1.34 1.34 -0.68 0.68 0 0 Z " fill="#4A78E8" transform="translate(282,100)"/>
<path d="M0 0 C3.60654039 2.40436026 3.85452932 3.94679607 5 8 C2.13275314 7.42655063 1.1385485 7.1385485 -1 5 C-0.625 2.375 -0.625 2.375 0 0 Z " fill="#2365E5" transform="translate(405,58)"/>
<path d="M0 0 C1.43931117 0.45261358 2.87638999 0.91232979 4.3125 1.375 C5.11300781 1.63023438 5.91351563 1.88546875 6.73828125 2.1484375 C9 3 9 3 12 5 C7.04230204 5.29162929 3.97193147 5.12940055 0 2 C0 1.34 0 0.68 0 0 Z " fill="#698FE0" transform="translate(445,74)"/>
<path d="M0 0 C0.99 0.33 1.98 0.66 3 1 C3 2.65 3 4.3 3 6 C1.02 6.99 1.02 6.99 -1 8 C-1.33 6.35 -1.66 4.7 -2 3 C-1.34 3 -0.68 3 0 3 C0 2.01 0 1.02 0 0 Z " fill="#2264E3" transform="translate(375,65)"/>
<path d="M0 0 C1.32 0.66 2.64 1.32 4 2 C4 2.99 4 3.98 4 5 C2.02 5.33 0.04 5.66 -2 6 C-1.34 4.02 -0.68 2.04 0 0 Z " fill="#4979E7" transform="translate(330,58)"/>
<path d="M0 0 C1.98 0 3.96 0 6 0 C6.33 0.99 6.66 1.98 7 3 C9.01508358 3.73323796 9.01508358 3.73323796 11 4 C9 5 9 5 6.8359375 4.44140625 C6.02382813 4.15136719 5.21171875 3.86132812 4.375 3.5625 C3.55773437 3.27503906 2.74046875 2.98757812 1.8984375 2.69140625 C1.27195312 2.46324219 0.64546875 2.23507813 0 2 C0 1.34 0 0.68 0 0 Z " fill="#7496E3" transform="translate(441,85)"/>
<path d="M0 0 C1.65 0 3.3 0 5 0 C4.01 2.64 3.02 5.28 2 8 C0.68 6.68 -0.64 5.36 -2 4 C-1.34 3.67 -0.68 3.34 0 3 C0 2.01 0 1.02 0 0 Z " fill="#5F89E5" transform="translate(380,72)"/>
<path d="M0 0 C4.55737263 0.43820891 7.57653445 0.85041169 11 4 C10.67 4.66 10.34 5.32 10 6 C6.38060496 4.27256146 3.12432397 2.52349243 0 0 Z " fill="#6A8EE5" transform="translate(108,111)"/>
<path d="M0 0 C0.91007812 0.00902344 1.82015625 0.01804687 2.7578125 0.02734375 C3.45648438 0.03894531 4.15515625 0.05054687 4.875 0.0625 C3.885 1.5475 3.885 1.5475 2.875 3.0625 C0.87543389 3.10415763 -1.12543389 3.10415763 -3.125 3.0625 C-3.785 3.7225 -4.445 4.3825 -5.125 5.0625 C-5.785 3.7425 -6.445 2.4225 -7.125 1.0625 C-4.60024538 -0.19987731 -2.81299534 -0.03606404 0 0 Z " fill="#7399ED" transform="translate(450.125,97.9375)"/>
<path d="M0 0 C3.60654039 2.40436026 3.85452932 3.94679607 5 8 C3.35 8 1.7 8 0 8 C0.2784375 7.13375 0.2784375 7.13375 0.5625 6.25 C1.04023546 3.79307475 0.75729364 2.35602466 0 0 Z " fill="#2363EA" transform="translate(464,63)"/>
<path d="M0 0 C0.66 0.33 1.32 0.66 2 1 C1.34 2.98 0.68 4.96 0 7 C-1.32 7 -2.64 7 -4 7 C-2.92598892 4.08482708 -2.22189824 2.22189824 0 0 Z " fill="#5881DD" transform="translate(148,80)"/>
<path d="M0 0 C1.65 0 3.3 0 5 0 C4.67 0.99 4.34 1.98 4 3 C0.9375 4.1875 0.9375 4.1875 -2 5 C-1.34 3.35 -0.68 1.7 0 0 Z " fill="#4076E2" transform="translate(151,3)"/>
<path d="M0 0 C0.56203125 0.31710938 1.1240625 0.63421875 1.703125 0.9609375 C4.15196317 2.06874525 6.08387855 2.38975399 8.75 2.625 C9.54921875 2.69976562 10.3484375 2.77453125 11.171875 2.8515625 C11.77515625 2.90054688 12.3784375 2.94953125 13 3 C13 3.33 13 3.66 13 4 C9.37 4 5.74 4 2 4 C1.34 2.68 0.68 1.36 0 0 Z " fill="#487BE0" transform="translate(405,115)"/>
<path d="M0 0 C2.4375 0.375 2.4375 0.375 5 1 C5.33 1.66 5.66 2.32 6 3 C5.34 3 4.68 3 4 3 C4.33 3.99 4.66 4.98 5 6 C4.34 6 3.68 6 3 6 C0 2.53846154 0 2.53846154 0 0 Z " fill="#5F88E7" transform="translate(430,100)"/>
<path d="M0 0 C0.33 0 0.66 0 1 0 C1 1.98 1 3.96 1 6 C2.32 6.66 3.64 7.32 5 8 C4.67 8.99 4.34 9.98 4 11 C2 10 2 10 0 8 C-0.26991906 5.31160615 -0.08737357 2.70858064 0 0 Z " fill="#5382E5" transform="translate(273,69)"/>
<path d="M0 0 C2.475 0.495 2.475 0.495 5 1 C5.33 2.32 5.66 3.64 6 5 C4.125 4.75 4.125 4.75 2 4 C0.75 1.9375 0.75 1.9375 0 0 Z " fill="#2560EF" transform="translate(456,57)"/>
<path d="M0 0 C0.66 0 1.32 0 2 0 C2 0.66 2 1.32 2 2 C2.639375 2.103125 3.27875 2.20625 3.9375 2.3125 C4.618125 2.539375 5.29875 2.76625 6 3 C6.33 3.99 6.66 4.98 7 6 C2.32307692 4.52307692 2.32307692 4.52307692 0.6875 1.875 C0.460625 1.25625 0.23375 0.6375 0 0 Z " fill="#6D8FE3" transform="translate(53,83)"/>
<path d="M0 0 C0.99 0.99 1.98 1.98 3 3 C2.01 3 1.02 3 0 3 C-0.33 3.66 -0.66 4.32 -1 5 C-1.99 4.67 -2.98 4.34 -4 4 C-3.67 3.01 -3.34 2.02 -3 1 C-2.01 0.67 -1.02 0.34 0 0 Z " fill="#4376E9" transform="translate(376,63)"/>
<path d="M0 0 C0.66 0.33 1.32 0.66 2 1 C1.34 2.32 0.68 3.64 0 5 C-1.32 5 -2.64 5 -4 5 C-3 2 -3 2 0 0 Z " fill="#698EE4" transform="translate(436,57)"/>
</svg>
